<svg id="visual" viewBox="0 0 960 200" width="960" height="200" xmlns="http://www.w3.org/2000/svg" xmlns:xlink="http://www.w3.org/1999/xlink" version="1.1"><rect x="0" y="0" width="960" height="200" fill="#f5f8ff"></rect><path d="M0 121L17.8 126.5C35.7 132 71.3 143 106.8 147.3C142.3 151.7 177.7 149.3 213.2 146.3C248.7 143.3 284.3 139.7 320 135.5C355.7 131.3 391.3 126.7 426.8 124.3C462.3 122 497.7 122 533.2 126.7C568.7 131.3 604.3 140.7 640 137.8C675.7 135 711.3 120 746.8 119.7C782.3 119.3 817.7 133.7 853.2 141.8C888.7 150 924.3 152 942.2 153L960 154L960 0L942.2 0C924.3 0 888.7 0 853.2 0C817.7 0 782.3 0 746.8 0C711.3 0 675.7 0 640 0C604.3 0 568.7 0 533.2 0C497.7 0 462.3 0 426.8 0C391.3 0 355.7 0 320 0C284.3 0 248.7 0 213.2 0C177.7 0 142.3 0 106.8 0C71.3 0 35.7 0 17.8 0L0 0Z" fill="#f5f8ff"></path><path d="M0 118L17.8 120.8C35.7 123.7 71.3 129.3 106.8 129C142.3 128.7 177.7 122.3 213.2 122C248.7 121.7 284.3 127.3 320 126.5C355.7 125.7 391.3 118.3 426.8 114.8C462.3 111.3 497.7 111.7 533.2 110.7C568.7 109.7 604.3 107.3 640 108C675.7 108.7 711.3 112.3 746.8 109.8C782.3 107.3 817.7 98.7 853.2 95.8C888.7 93 924.3 96 942.2 97.5L960 99L960 0L942.2 0C924.3 0 888.7 0 853.2 0C817.7 0 782.3 0 746.8 0C711.3 0 675.7 0 640 0C604.3 0 568.7 0 533.2 0C497.7 0 462.3 0 426.8 0C391.3 0 355.7 0 320 0C284.3 0 248.7 0 213.2 0C177.7 0 142.3 0 106.8 0C71.3 0 35.7 0 17.8 0L0 0Z" fill="#9ab1f4"></path><path d="M0 95L17.8 98.5C35.7 102 71.3 109 106.8 107.2C142.3 105.3 177.7 94.7 213.2 92.3C248.7 90 284.3 96 320 96.2C355.7 96.3 391.3 90.7 426.8 91.3C462.3 92 497.7 99 533.2 102C568.7 105 604.3 104 640 101.8C675.7 99.7 711.3 96.3 746.8 94.5C782.3 92.7 817.7 92.3 853.2 90.5C888.7 88.7 924.3 85.3 942.2 83.7L960 82L960 0L942.2 0C924.3 0 888.7 0 853.2 0C817.7 0 782.3 0 746.8 0C711.3 0 675.7 0 640 0C604.3 0 568.7 0 533.2 0C497.7 0 462.3 0 426.8 0C391.3 0 355.7 0 320 0C284.3 0 248.7 0 213.2 0C177.7 0 142.3 0 106.8 0C71.3 0 35.7 0 17.8 0L0 0Z" fill="#4169e1"></path><path d="M0 77L17.8 78.7C35.7 80.3 71.3 83.7 106.8 80.7C142.3 77.7 177.7 68.3 213.2 65.7C248.7 63 284.3 67 320 70.7C355.7 74.3 391.3 77.7 426.8 74.8C462.3 72 497.7 63 533.2 63C568.7 63 604.3 72 640 75.7C675.7 79.3 711.3 77.7 746.8 78.2C782.3 78.7 817.7 81.3 853.2 78.3C888.7 75.3 924.3 66.7 942.2 62.3L960 58L960 0L942.2 0C924.3 0 888.7 0 853.2 0C817.7 0 782.3 0 746.8 0C711.3 0 675.7 0 640 0C604.3 0 568.7 0 533.2 0C497.7 0 462.3 0 426.8 0C391.3 0 355.7 0 320 0C284.3 0 248.7 0 213.2 0C177.7 0 142.3 0 106.8 0C71.3 0 35.7 0 17.8 0L0 0Z" fill="#4169e1"></path><path d="M0 33L17.8 37.3C35.7 41.7 71.3 50.3 106.8 56C142.3 61.7 177.7 64.3 213.2 64.7C248.7 65 284.3 63 320 60.3C355.7 57.7 391.3 54.3 426.8 52.5C462.3 50.7 497.7 50.3 533.2 48.2C568.7 46 604.3 42 640 44.5C675.7 47 711.3 56 746.8 58C782.3 60 817.7 55 853.2 53.2C888.7 51.3 924.3 52.7 942.2 53.3L960 54L960 0L942.2 0C924.3 0 888.7 0 853.2 0C817.7 0 782.3 0 746.8 0C711.3 0 675.7 0 640 0C604.3 0 568.7 0 533.2 0C497.7 0 462.3 0 426.8 0C391.3 0 355.7 0 320 0C284.3 0 248.7 0 213.2 0C177.7 0 142.3 0 106.8 0C71.3 0 35.7 0 17.8 0L0 0Z" fill="#9ab1f4"></path><path d="M0 25L17.8 27C35.7 29 71.3 33 106.8 31.8C142.3 30.7 177.7 24.3 213.2 24.8C248.7 25.3 284.3 32.7 320 32.3C355.7 32 391.3 24 426.8 22.3C462.3 20.7 497.7 25.3 533.2 28.7C568.7 32 604.3 34 640 32.2C675.7 30.3 711.3 24.7 746.8 23.5C782.3 22.3 817.7 25.7 853.2 25.5C888.7 25.3 924.3 21.7 942.2 19.8L960 18L960 0L942.2 0C924.3 0 888.7 0 853.2 0C817.7 0 782.3 0 746.8 0C711.3 0 675.7 0 640 0C604.3 0 568.7 0 533.2 0C497.7 0 462.3 0 426.8 0C391.3 0 355.7 0 320 0C284.3 0 248.7 0 213.2 0C177.7 0 142.3 0 106.8 0C71.3 0 35.7 0 17.8 0L0 0Z" fill="#f5f8ff"></path></svg>