<svg id="visual" viewBox="0 0 960 200" width="960" height="200" xmlns="http://www.w3.org/2000/svg" xmlns:xlink="http://www.w3.org/1999/xlink" version="1.1"><rect x="0" y="0" width="960" height="200" fill="#f8f4fc"></rect><path d="M0 122L22.8 125.2C45.7 128.3 91.3 134.7 137 141.3C182.7 148 228.3 155 274 149.2C319.7 143.3 365.3 124.7 411.2 118.3C457 112 503 118 548.8 119.2C594.7 120.3 640.3 116.7 686 123.5C731.7 130.3 777.3 147.7 823 149.5C868.7 151.3 914.3 137.7 937.2 130.8L960 124L960 0L937.2 0C914.3 0 868.7 0 823 0C777.3 0 731.7 0 686 0C640.3 0 594.7 0 548.8 0C503 0 457 0 411.2 0C365.3 0 319.7 0 274 0C228.3 0 182.7 0 137 0C91.3 0 45.7 0 22.8 0L0 0Z" fill="#f5f8ff"></path><path d="M0 141L22.8 134.3C45.7 127.7 91.3 114.3 137 109.3C182.7 104.3 228.3 107.7 274 113C319.7 118.3 365.3 125.7 411.2 125.8C457 126 503 119 548.8 113.5C594.7 108 640.3 104 686 101.3C731.7 98.7 777.3 97.3 823 102C868.7 106.7 914.3 117.3 937.2 122.7L960 128L960 0L937.2 0C914.3 0 868.7 0 823 0C777.3 0 731.7 0 686 0C640.3 0 594.7 0 548.8 0C503 0 457 0 411.2 0C365.3 0 319.7 0 274 0C228.3 0 182.7 0 137 0C91.3 0 45.7 0 22.8 0L0 0Z" fill="#9ab1f4"></path><path d="M0 83L22.8 80.7C45.7 78.3 91.3 73.7 137 71.3C182.7 69 228.3 69 274 73.5C319.7 78 365.3 87 411.2 89.2C457 91.3 503 86.7 548.8 84C594.7 81.3 640.3 80.7 686 84.3C731.7 88 777.3 96 823 99.8C868.7 103.7 914.3 103.3 937.2 103.2L960 103L960 0L937.2 0C914.3 0 868.7 0 823 0C777.3 0 731.7 0 686 0C640.3 0 594.7 0 548.8 0C503 0 457 0 411.2 0C365.3 0 319.7 0 274 0C228.3 0 182.7 0 137 0C91.3 0 45.7 0 22.8 0L0 0Z" fill="#4169e1"></path><path d="M0 69L22.8 70C45.7 71 91.3 73 137 71.3C182.7 69.7 228.3 64.3 274 61.8C319.7 59.3 365.3 59.7 411.2 58.7C457 57.7 503 55.3 548.8 56C594.7 56.7 640.3 60.3 686 62.5C731.7 64.7 777.3 65.3 823 64.5C868.7 63.7 914.3 61.3 937.2 60.2L960 59L960 0L937.2 0C914.3 0 868.7 0 823 0C777.3 0 731.7 0 686 0C640.3 0 594.7 0 548.8 0C503 0 457 0 411.2 0C365.3 0 319.7 0 274 0C228.3 0 182.7 0 137 0C91.3 0 45.7 0 22.8 0L0 0Z" fill="#4169e1"></path><path d="M0 57L22.8 53.8C45.7 50.7 91.3 44.3 137 40.5C182.7 36.7 228.3 35.3 274 35.5C319.7 35.7 365.3 37.3 411.2 40.2C457 43 503 47 548.8 46.3C594.7 45.7 640.3 40.3 686 42.2C731.7 44 777.3 53 823 53C868.7 53 914.3 44 937.2 39.5L960 35L960 0L937.2 0C914.3 0 868.7 0 823 0C777.3 0 731.7 0 686 0C640.3 0 594.7 0 548.8 0C503 0 457 0 411.2 0C365.3 0 319.7 0 274 0C228.3 0 182.7 0 137 0C91.3 0 45.7 0 22.8 0L0 0Z" fill="#9ab1f4"></path><path d="M0 41L22.8 38C45.7 35 91.3 29 137 27.8C182.7 26.7 228.3 30.3 274 31.5C319.7 32.7 365.3 31.3 411.2 31.2C457 31 503 32 548.8 29.3C594.7 26.7 640.3 20.3 686 21.3C731.7 22.3 777.3 30.7 823 33.2C868.7 35.7 914.3 32.3 937.2 30.7L960 29L960 0L937.2 0C914.3 0 868.7 0 823 0C777.3 0 731.7 0 686 0C640.3 0 594.7 0 548.8 0C503 0 457 0 411.2 0C365.3 0 319.7 0 274 0C228.3 0 182.7 0 137 0C91.3 0 45.7 0 22.8 0L0 0Z" fill="#ffffff"></path></svg>
